<svg id="图层_1" data-name="图层 1" xmlns="http://www.w3.org/2000/svg" xmlns:xlink="http://www.w3.org/1999/xlink" viewBox="0 0 945.22 1075.48"><defs><style>.cls-1{fill:url(#未命名的渐变_38);}.cls-2{fill:#e7fff0;}.cls-3{fill:url(#未命名的渐变_38-2);}.cls-4{fill:url(#未命名的渐变_38-3);}.cls-5{fill:url(#未命名的渐变_38-4);}.cls-6{fill:url(#未命名的渐变_38-5);}.cls-7{fill:url(#未命名的渐变_38-6);}.cls-8{fill:url(#未命名的渐变_38-7);}.cls-9{fill:url(#未命名的渐变_38-8);}.cls-10{fill:url(#未命名的渐变_38-9);}.cls-11{fill:url(#未命名的渐变_38-10);}.cls-12{fill:url(#未命名的渐变_38-11);}</style><linearGradient id="未命名的渐变_38" x1="693.75" y1="1103.93" x2="550.12" y2="999.76" gradientUnits="userSpaceOnUse"><stop offset="0" stop-color="#ff8000"/><stop offset="1" stop-color="#ffbf00"/></linearGradient><linearGradient id="未命名的渐变_38-2" x1="1234.94" y1="1047.83" x2="1091.58" y2="943.84" xlink:href="#未命名的渐变_38"/><linearGradient id="未命名的渐变_38-3" x1="1270.31" y1="998.39" x2="1126.95" y2="894.41" xlink:href="#未命名的渐变_38"/><linearGradient id="未命名的渐变_38-4" x1="1295.05" y1="963.92" x2="1150.99" y2="859.43" xlink:href="#未命名的渐变_38"/><linearGradient id="未命名的渐变_38-5" x1="1315.06" y1="935.74" x2="1170.72" y2="831.05" xlink:href="#未命名的渐变_38"/><linearGradient id="未命名的渐变_38-6" x1="1347.73" y1="889.97" x2="1203.53" y2="785.39" xlink:href="#未命名的渐变_38"/><linearGradient id="未命名的渐变_38-7" x1="1365.91" y1="864.6" x2="1221.72" y2="760.01" xlink:href="#未命名的渐变_38"/><linearGradient id="未命名的渐变_38-8" x1="1382.57" y1="840.86" x2="1238.46" y2="736.33" xlink:href="#未命名的渐变_38"/><linearGradient id="未命名的渐变_38-9" x1="1231.52" y1="589.92" x2="611.29" y2="301.69" xlink:href="#未命名的渐变_38"/><linearGradient id="未命名的渐变_38-10" x1="500" y1="643.85" x2="1417.7" y2="643.85" xlink:href="#未命名的渐变_38"/><linearGradient id="未命名的渐变_38-11" x1="805.61" y1="153.75" x2="1466.99" y2="520.48" xlink:href="#未命名的渐变_38"/></defs><title>Logo1</title><polygon class="cls-1" points="586.33 1005.57 595.35 1000.36 615.27 1060.83 646.87 1042.59 649.71 1051.29 609.09 1074.74 586.33 1005.57"/><path class="cls-2" d="M1094.07,1004.1l19.91,60.47,31.6-18.24,2.53,7.73L1108.37,1077l-22.44-68.21,8.14-4.69m.57-1.48-1.07.61-8.14,4.7-.7.41.25.77,22.44,68.2.39,1.17,1.06-.61,39.74-22.95.7-.4-.25-.77-2.53-7.73-.38-1.18-1.07.62-30.53,17.63L1095,1003.78l-.38-1.16Z" transform="translate(-499 -3)"/><path class="cls-3" d="M1169.91,1039.19a24.51,24.51,0,0,1-6.88-1c-7-2-13.08-7.38-18-15.87-6.37-11-8.34-22.21-5.88-33.26a33.57,33.57,0,0,1,16.58-22.55,29.43,29.43,0,0,1,14.64-4.33,23,23,0,0,1,4.38.42c6.09,1.17,11.25,4.57,15.32,10.13l.3.41-8,5.65-.3-.35c-3.25-3.83-6.74-6.13-10.37-6.83a13.81,13.81,0,0,0-2.64-.25,17.2,17.2,0,0,0-8.59,2.53c-7.26,4.19-11.33,10.91-12.08,20-.68,7.86,1.23,15.76,5.67,23.46,3.54,6.12,7.77,10,12.6,11.44a17.28,17.28,0,0,0,5,.77,18.75,18.75,0,0,0,9.41-2.71,20.1,20.1,0,0,0,8.83-10.45c1.78-4.59,2-9.85.7-15.63l-.09-.41,9.66-3.92.11.6c1.52,8.56.87,16.19-1.95,22.66a31.77,31.77,0,0,1-13.5,15.1A30,30,0,0,1,1169.91,1039.19Z" transform="translate(-499 -3)"/><path class="cls-2" d="M1170.39,962.69a21.94,21.94,0,0,1,4.28.41q9,1.73,15,9.93l-7.19,5.1q-5-5.91-10.65-7a14.05,14.05,0,0,0-2.74-.26,17.54,17.54,0,0,0-8.84,2.6q-11.17,6.45-12.33,20.35-1,12,5.74,23.75,5.41,9.39,12.88,11.67a17.63,17.63,0,0,0,5.19.79,19.2,19.2,0,0,0,9.66-2.78,20.51,20.51,0,0,0,9-10.7q2.73-7.06.72-15.92l8.7-3.53q2.27,12.75-1.92,22.37a31.11,31.11,0,0,1-13.29,14.87,29.4,29.4,0,0,1-14.75,4.35,24.25,24.25,0,0,1-6.74-1q-10.41-3-17.69-15.64-9.49-16.44-5.82-32.9A32.86,32.86,0,0,1,1156,967a28.7,28.7,0,0,1,14.39-4.27m0-1a29.85,29.85,0,0,0-14.89,4.4A34,34,0,0,0,1138.68,989c-2.49,11.18-.5,22.49,5.93,33.62,5,8.61,11.12,14,18.28,16.1a25.19,25.19,0,0,0,7,1,30.46,30.46,0,0,0,15.25-4.49,32.12,32.12,0,0,0,13.7-15.33c2.87-6.57,3.54-14.29,2-22.94l-.21-1.22-1.15.46-8.7,3.53-.78.32.18.83c1.29,5.68,1.07,10.84-.68,15.34a19.55,19.55,0,0,1-8.61,10.19,18.22,18.22,0,0,1-9.16,2.65,16.71,16.71,0,0,1-4.9-.75c-4.7-1.43-8.84-5.2-12.3-11.21-4.4-7.61-6.29-15.41-5.62-23.17.76-9,4.63-15.4,11.84-19.57a16.78,16.78,0,0,1,8.34-2.46,13.68,13.68,0,0,1,2.55.24c3.51.68,6.9,2.92,10.08,6.66l.59.7.75-.53,7.19-5.09.83-.59-.6-.82c-4.15-5.66-9.4-9.13-15.63-10.33a23.92,23.92,0,0,0-4.47-.42Z" transform="translate(-499 -3)"/><path class="cls-4" d="M1226.24,1006.07c-.69,0-1.38,0-2-.08-6.24-.5-11.74-4.76-16.34-12.66l-.23-.4L1216,987l1.41,2.67a14.72,14.72,0,0,0,5.16,5.32,10.9,10.9,0,0,0,5.73,1.49,16,16,0,0,0,1.92-.12,25.59,25.59,0,0,0,9.62-3.47c4.74-2.74,7.8-5.89,9.08-9.37s1.16-6.51-.34-9.11a8.64,8.64,0,0,0-4.79-3.83,16,16,0,0,0-4.6-.48,91.61,91.61,0,0,0-10.15.74,113.25,113.25,0,0,1-11.62.9c-.37,0-.71,0-1,0a23.14,23.14,0,0,1-9.67-2.43,16.32,16.32,0,0,1-6.33-6.31,17.53,17.53,0,0,1-2.38-10.25,19.1,19.1,0,0,1,4.31-10.39,35.14,35.14,0,0,1,10.18-8.58,33.6,33.6,0,0,1,14.2-4.81c.62,0,1.23-.07,1.82-.07a18.72,18.72,0,0,1,9.72,2.5,19.52,19.52,0,0,1,7,6.78c.15.26.38.68.69,1.29l.21.39-8.3,5.71-.27-.47a15.74,15.74,0,0,0-2.69-3.64,11.11,11.11,0,0,0-7.76-3,17.54,17.54,0,0,0-3.26.34,23.17,23.17,0,0,0-7.29,2.83c-4.31,2.48-7.13,5.41-8.4,8.7a8,8,0,0,0,.65,7.26,7.75,7.75,0,0,0,3.26,3.14,13,13,0,0,0,5.65,1h.32c1.88,0,6.24-.41,13-1.14,4.39-.47,7.8-.71,10.16-.71.61,0,1.14,0,1.62.05a18.85,18.85,0,0,1,8.41,2.45,16.9,16.9,0,0,1,6.07,6.28,18.14,18.14,0,0,1,2.32,11.15,23.07,23.07,0,0,1-4.7,11.51,35.91,35.91,0,0,1-11,9.44C1237.76,1004.25,1231.8,1006.07,1226.24,1006.07Z" transform="translate(-499 -3)"/><path class="cls-2" d="M1228.53,929.37a18,18,0,0,1,9.46,2.43,18.89,18.89,0,0,1,6.88,6.6c.14.25.37.67.68,1.27l-7.49,5.15a16.28,16.28,0,0,0-2.78-3.76,12.23,12.23,0,0,0-5-2.79,11.74,11.74,0,0,0-3-.38,17.77,17.77,0,0,0-3.36.35,23.85,23.85,0,0,0-7.44,2.88q-6.64,3.84-8.61,9a8.54,8.54,0,0,0,.67,7.69,8.28,8.28,0,0,0,3.48,3.34,13.29,13.29,0,0,0,5.86,1h.33c1.91,0,6.24-.41,13-1.14q6.57-.71,10.1-.71c.59,0,1.12,0,1.58.05a18.06,18.06,0,0,1,8.19,2.39,16.23,16.23,0,0,1,5.9,6.09,17.61,17.61,0,0,1,2.25,10.85,22.4,22.4,0,0,1-4.6,11.26,35.32,35.32,0,0,1-10.84,9.31q-9.21,5.31-17.47,5.32c-.68,0-1.35,0-2-.08q-9.15-.74-16-12.42l7.55-5.35,1.13,2.17a15.24,15.24,0,0,0,5.35,5.52,11.36,11.36,0,0,0,6,1.56,15.07,15.07,0,0,0,2-.13,25.93,25.93,0,0,0,9.81-3.53q7.31-4.21,9.3-9.63t-.38-9.53a9,9,0,0,0-5-4,16.39,16.39,0,0,0-4.77-.51,90.43,90.43,0,0,0-10.21.74,112.77,112.77,0,0,1-11.56.9c-.36,0-.69,0-1,0a22.4,22.4,0,0,1-9.45-2.37,15.76,15.76,0,0,1-6.14-6.12,17,17,0,0,1-2.31-10,18.5,18.5,0,0,1,4.2-10.12,34.29,34.29,0,0,1,10-8.45,32.83,32.83,0,0,1,14-4.75c.61,0,1.21-.07,1.79-.07m0-1c-.6,0-1.23,0-1.86.07a34,34,0,0,0-14.41,4.88,35.53,35.53,0,0,0-10.32,8.7,19.56,19.56,0,0,0-4.42,10.67,18.07,18.07,0,0,0,2.45,10.53,16.75,16.75,0,0,0,6.52,6.5,23.53,23.53,0,0,0,9.88,2.49l1.05,0a111.61,111.61,0,0,0,11.67-.91,90.6,90.6,0,0,1,10.1-.73,15.49,15.49,0,0,1,4.46.46,8,8,0,0,1,4.5,3.6c1.44,2.5,1.54,5.34.3,8.68s-4.22,6.44-8.86,9.12a25.1,25.1,0,0,1-9.43,3.4,15,15,0,0,1-1.86.12,10.41,10.41,0,0,1-5.47-1.42,14.24,14.24,0,0,1-5-5.16l-1.12-2.13-.53-1-.93.66-7.54,5.35-.75.53.46.79c4.69,8,10.32,12.39,16.73,12.9.68.06,1.39.09,2.09.09,5.65,0,11.7-1.84,18-5.46a36.38,36.38,0,0,0,11.14-9.57,23.53,23.53,0,0,0,4.8-11.76,18.65,18.65,0,0,0-2.38-11.45,17.44,17.44,0,0,0-6.26-6.46,19.37,19.37,0,0,0-8.63-2.52c-.48,0-1-.05-1.65-.05-2.38,0-5.81.24-10.21.71-6.71.73-11.06,1.12-12.92,1.14h-.32a12.34,12.34,0,0,1-5.41-.95,7.21,7.21,0,0,1-3.06-2.94,7.51,7.51,0,0,1-.61-6.83c1.22-3.18,4-6,8.18-8.45a22.74,22.74,0,0,1,7.13-2.77,16.59,16.59,0,0,1,3.17-.33,10.73,10.73,0,0,1,2.8.35,11.24,11.24,0,0,1,4.63,2.57,14.91,14.91,0,0,1,2.58,3.51l.55.94.89-.61,7.49-5.15.72-.5-.4-.79c-.33-.63-.55-1.05-.7-1.31a20.05,20.05,0,0,0-7.24-6.95,19,19,0,0,0-10-2.58Z" transform="translate(-499 -3)"/><path class="cls-5" d="M1278,978.74a9.82,9.82,0,0,1-1.72-.15,6.91,6.91,0,0,1-5-3.62,50.61,50.61,0,0,1-2.82-7.39l-9.25-28.13-5.94,3.43-2.47-7.48,5.94-3.43-3.91-12,6.26-11.35,6.05,18.48,7.4-4.27,2.42,7.51-7.35,4.24,8.84,26.93a48,48,0,0,0,2.22,6,2.55,2.55,0,0,0,1.61,1.36,2.58,2.58,0,0,0,.4,0,4.62,4.62,0,0,0,2.16-.73,20.75,20.75,0,0,0,4.06-3l.57-.56,2.66,7.92-.23.22a24.61,24.61,0,0,1-4.92,3.8A14.21,14.21,0,0,1,1278,978.74Z" transform="translate(-499 -3)"/><path class="cls-2" d="M1259,909.89l5.89,18,7.39-4.27,2.11,6.53-7.35,4.25,9,27.32a53,53,0,0,0,2.26,6.11,3,3,0,0,0,2,1.59,2.07,2.07,0,0,0,.5.06,5,5,0,0,0,2.41-.8,21.06,21.06,0,0,0,4.16-3.06l2.3,6.86a24,24,0,0,1-4.82,3.73,13.66,13.66,0,0,1-6.78,2.06,9.78,9.78,0,0,1-1.63-.14,6.45,6.45,0,0,1-4.61-3.38,51.28,51.28,0,0,1-2.78-7.3l-9.44-28.71-5.93,3.42-2.15-6.5,5.93-3.43-4-12.16,5.6-10.15m.23-2.49-1.11,2-5.6,10.15-.21.38.14.41,3.72,11.39-5.23,3-.71.41.26.77,2.15,6.51.38,1.16,1.07-.61,4.87-2.81,9,27.54a51.52,51.52,0,0,0,2.86,7.49,7.41,7.41,0,0,0,5.31,3.86,10.76,10.76,0,0,0,1.8.16,14.62,14.62,0,0,0,7.28-2.2,24.62,24.62,0,0,0,5-3.88l.45-.44-.2-.59-2.3-6.86-.51-1.51-1.14,1.11a20,20,0,0,1-4,2.91,4.09,4.09,0,0,1-1.91.67,1.36,1.36,0,0,1-.29,0,2.07,2.07,0,0,1-1.29-1.12,47.89,47.89,0,0,1-2.18-5.93l-8.71-26.54,6.65-3.84.7-.4-.25-.77-2.11-6.54-.38-1.17-1.07.62-6.33,3.65-5.5-16.8-.72-2.18Z" transform="translate(-499 -3)"/><path class="cls-6" d="M1304,963.82a12.57,12.57,0,0,1-2.79-.32,11.46,11.46,0,0,1-7.59-5.59,64.94,64.94,0,0,1-4.14-10.46L1280,918.54l8.4-4.85L1299,945.87a32.25,32.25,0,0,0,2.38,5.82,5.24,5.24,0,0,0,3.43,2.77,4.81,4.81,0,0,0,1,.11,8,8,0,0,0,3.9-1.24,15.11,15.11,0,0,0,5.11-4.93,18.53,18.53,0,0,0,2.72-7,24.56,24.56,0,0,0,0-8.07,65.22,65.22,0,0,0-2.49-9.16l-7.15-21.74,8.4-4.85L1332.81,948l-7.81,4.51-2.57-7.79c-2,8.18-5.64,13.85-10.9,16.89A15,15,0,0,1,1304,963.82Z" transform="translate(-499 -3)"/><path class="cls-2" d="M1316,898.35l16.24,49.42-6.93,4-2.94-8.93q-2.76,13.54-11.06,18.34a14.43,14.43,0,0,1-7.26,2.14,11.46,11.46,0,0,1-2.67-.31,10.87,10.87,0,0,1-7.27-5.35,62.71,62.71,0,0,1-4.1-10.37l-9.39-28.52,7.52-4.34,10.38,31.6a32.81,32.81,0,0,0,2.42,5.91,5.75,5.75,0,0,0,3.75,3,5.19,5.19,0,0,0,1.12.12,8.45,8.45,0,0,0,4.15-1.31,15.53,15.53,0,0,0,5.28-5.09,18.75,18.75,0,0,0,2.79-7.15,25,25,0,0,0,0-8.23,63.56,63.56,0,0,0-2.51-9.24l-7-21.36,7.51-4.34m.57-1.48-1.07.61-7.51,4.34-.71.41.26.77,7,21.36a62.71,62.71,0,0,1,2.47,9.07,24.49,24.49,0,0,1,0,7.92,17.83,17.83,0,0,1-2.65,6.77,14.53,14.53,0,0,1-4.94,4.78,7.5,7.5,0,0,1-3.65,1.17,3.82,3.82,0,0,1-.9-.1,4.78,4.78,0,0,1-3.11-2.53,32.28,32.28,0,0,1-2.33-5.72l-10.38-31.6-.38-1.17-1.07.62-7.52,4.34-.7.4.25.78,9.39,28.52a63.51,63.51,0,0,0,4.18,10.55,11.92,11.92,0,0,0,7.91,5.83,12.9,12.9,0,0,0,2.9.33,15.58,15.58,0,0,0,7.76-2.27c5-2.91,8.61-8.13,10.7-15.56l1.85,5.59.38,1.17,1.07-.61,6.93-4,.7-.4-.25-.78L1316.92,898l-.38-1.17Z" transform="translate(-499 -3)"/><path class="cls-7" d="M1353,935.23a17,17,0,0,1-5.27-.87c-4.67-1.51-8.77-5.3-12.21-11.25a38.47,38.47,0,0,1-5.26-16.84,29.41,29.41,0,0,1,2.55-15A21.12,21.12,0,0,1,1341,882a15.88,15.88,0,0,1,8-2.26,17.24,17.24,0,0,1,8.38,2.36L1349,856.37l8.36-4.83,22.75,69.18-7.81,4.51-2-6c-1.6,6.56-4.64,11.16-9,13.7A16.41,16.41,0,0,1,1353,935.23Zm-2.28-47.92a10.34,10.34,0,0,0-5.16,1.46,11.35,11.35,0,0,0-4,3.88,16.33,16.33,0,0,0-2,6.43,29.43,29.43,0,0,0,.55,9.29,28.27,28.27,0,0,0,3,8.51,26.34,26.34,0,0,0,5,6.62,10.51,10.51,0,0,0,5.42,2.5,8.37,8.37,0,0,0,1.31.11,9.31,9.31,0,0,0,4.65-1.32c3.25-1.88,5.25-5.34,5.95-10.3,1-6.71-.53-13.55-4.44-20.33-1.94-3.36-4.36-5.5-7.18-6.37A10.19,10.19,0,0,0,1350.7,887.31Z" transform="translate(-499 -3)"/><path class="cls-2" d="M1357,852.28l22.44,68.21-6.93,4-2.36-7.16q-2.18,11.1-9.19,15.16a15.86,15.86,0,0,1-8,2.24,16.39,16.39,0,0,1-5.12-.85q-6.84-2.21-11.92-11a37.58,37.58,0,0,1-5.2-16.62,28.78,28.78,0,0,1,2.5-14.76,20.48,20.48,0,0,1,8-9.06,15.25,15.25,0,0,1,7.73-2.2,17.45,17.45,0,0,1,9.27,3l-8.71-26.58,7.47-4.32m-2.25,74.33a9.72,9.72,0,0,0,4.89-1.39q5.11-3,6.19-10.66,1.49-10.27-4.5-20.65c-2-3.49-4.5-5.69-7.47-6.6a10.34,10.34,0,0,0-8.59,1,11.65,11.65,0,0,0-4.22,4,16.57,16.57,0,0,0-2,6.63,29.87,29.87,0,0,0,.56,9.45,29.28,29.28,0,0,0,3,8.67,26.85,26.85,0,0,0,5.11,6.73,11,11,0,0,0,5.67,2.63,9.43,9.43,0,0,0,1.4.11m2.82-75.81-1.07.61-7.47,4.32-.7.41.25.77,7.91,24.16a17.14,17.14,0,0,0-7.52-1.85,16.33,16.33,0,0,0-8.23,2.33,21.57,21.57,0,0,0-8.42,9.49,30,30,0,0,0-2.6,15.26,38.94,38.94,0,0,0,5.33,17.06c3.5,6.06,7.7,9.93,12.49,11.48a17.62,17.62,0,0,0,5.42.89,16.86,16.86,0,0,0,8.5-2.38c4.14-2.39,7.1-6.55,8.83-12.39l1.27,3.84L1372,926l1.07-.61,6.93-4,.7-.4-.25-.78L1358,852l-.38-1.17Zm-2.82,74.81a8.89,8.89,0,0,1-1.25-.1,10,10,0,0,1-5.16-2.39,25.87,25.87,0,0,1-4.9-6.48,28.21,28.21,0,0,1-2.9-8.37,28.72,28.72,0,0,1-.54-9.13,15.54,15.54,0,0,1,1.9-6.23,10.67,10.67,0,0,1,3.87-3.7,9.7,9.7,0,0,1,4.91-1.4,9.84,9.84,0,0,1,2.89.46c2.7.83,5,2.89,6.89,6.14,3.86,6.68,5.34,13.42,4.38,20-.68,4.86-2.55,8.11-5.7,9.93a8.77,8.77,0,0,1-4.39,1.26Z" transform="translate(-499 -3)"/><path class="cls-8" d="M1374.29,864.1l8.4-4.85,16.56,50.39-8.4,4.85Zm-6.16-18.81,8.36-4.83,3.45,10.52-8.36,4.82Z" transform="translate(-499 -3)"/><path class="cls-2" d="M1376.21,841.21l3.13,9.54-7.48,4.31-3.13-9.54,7.48-4.31M1382.4,860l16.24,49.42-7.51,4.34-16.24-49.42,7.51-4.34m-5.63-20.27-1.06.62-7.48,4.31-.7.41.25.77,3.13,9.54.38,1.17,1.07-.61,7.48-4.32.7-.4-.25-.77-3.13-9.55-.39-1.17Zm6.2,18.79-1.07.62-7.51,4.34-.7.4.25.78,16.24,49.41.38,1.17,1.07-.61,7.51-4.34.71-.41-.26-.77-16.24-49.42-.38-1.17Z" transform="translate(-499 -3)"/><path class="cls-9" d="M1418.75,896.22a18,18,0,0,1-9.44-2.6,22.42,22.42,0,0,1-7.76-8.2c-5-8.67-6.63-17.46-4.81-26.12,1.52-7.17,5.78-12.83,12.66-16.8a21.93,21.93,0,0,1,11-3.19,19.16,19.16,0,0,1,5.12.71c5.28,1.47,9.63,5.13,12.94,10.87a38.59,38.59,0,0,1,5.16,16.11,27,27,0,0,1-3,15.36,26.49,26.49,0,0,1-10.11,10.57,23.6,23.6,0,0,1-10.87,3.28Zm-.16-48.46a11.24,11.24,0,0,0-5.63,1.59,14.2,14.2,0,0,0-5.28,5.21,19.49,19.49,0,0,0-2.35,7.76,25,25,0,0,0,.89,9.34,36,36,0,0,0,3.28,8.18c2.32,4,5.06,6.54,8.15,7.49a11.34,11.34,0,0,0,3.31.51,11.47,11.47,0,0,0,5.75-1.63,14.05,14.05,0,0,0,4.07-3.61,15.64,15.64,0,0,0,2.6-5.34,22.78,22.78,0,0,0,.82-6.41,33.65,33.65,0,0,0-4.07-15.22c-2.22-3.85-5-6.31-8.09-7.31A11.36,11.36,0,0,0,1418.59,847.76Z" transform="translate(-499 -3)"/><path class="cls-2" d="M1420.39,839.81a18.47,18.47,0,0,1,5,.69q7.76,2.16,12.65,10.64a38,38,0,0,1,5.09,15.91,26.3,26.3,0,0,1-2.95,15.07,25.87,25.87,0,0,1-9.92,10.38,23.13,23.13,0,0,1-10.64,3.21h-.85a17.41,17.41,0,0,1-9.18-2.53,21.9,21.9,0,0,1-7.59-8q-7.45-12.91-4.75-25.77,2.25-10.6,12.42-16.47a21.3,21.3,0,0,1,10.74-3.13m.57,48.53a11.84,11.84,0,0,0,6-1.7,14.32,14.32,0,0,0,4.21-3.73,15.83,15.83,0,0,0,2.69-5.51,23.09,23.09,0,0,0,.84-6.55,34.37,34.37,0,0,0-4.14-15.47q-3.45-6-8.37-7.54a11.72,11.72,0,0,0-3.6-.58,11.56,11.56,0,0,0-5.88,1.66,14.49,14.49,0,0,0-5.46,5.39,19.75,19.75,0,0,0-2.41,8,25.34,25.34,0,0,0,.9,9.52,36.28,36.28,0,0,0,3.32,8.3q3.6,6.23,8.45,7.72a11.57,11.57,0,0,0,3.45.53m-.57-49.53a22.38,22.38,0,0,0-11.24,3.26c-7,4-11.35,9.81-12.9,17.13-1.85,8.78-.21,17.69,4.86,26.48a23.06,23.06,0,0,0,7.94,8.37,18.53,18.53,0,0,0,9.7,2.67c.3,0,.6,0,.89,0a24.13,24.13,0,0,0,11.1-3.33A27,27,0,0,0,1441,882.6a27.48,27.48,0,0,0,3.07-15.64,39.14,39.14,0,0,0-5.22-16.32c-3.38-5.86-7.84-9.59-13.25-11.1a19.28,19.28,0,0,0-5.25-.73Zm.57,48.53a10.61,10.61,0,0,1-3.16-.49c-3-.91-5.61-3.35-7.87-7.26a35.54,35.54,0,0,1-3.23-8.07,24.62,24.62,0,0,1-.87-9.15,19,19,0,0,1,2.28-7.56,13.76,13.76,0,0,1,5.1-5,10.31,10.31,0,0,1,8.68-1c3,1,5.65,3.34,7.81,7.08a33.27,33.27,0,0,1,4,15,22.2,22.2,0,0,1-.8,6.27,14.94,14.94,0,0,1-2.52,5.17,13.28,13.28,0,0,1-3.92,3.47,10.84,10.84,0,0,1-5.5,1.57Z" transform="translate(-499 -3)"/><path class="cls-10" d="M958.85,923.21A24.28,24.28,0,0,1,946.74,920L626.59,735a24.28,24.28,0,0,1-12.11-21V216.42a32,32,0,0,1,16-27.67L942.87,8.28a32,32,0,0,1,32,0l312.5,180.47a32,32,0,0,1,16,27.67V258a4.89,4.89,0,0,1-4.88,4.88,4.84,4.84,0,0,1-2.42-.66L971.9,75a26.11,26.11,0,0,0-26.1,0l-259,149.67a26.16,26.16,0,0,0-13,22.59v436a18.4,18.4,0,0,0,9.17,15.89L949.67,853.23a18.34,18.34,0,0,0,18.35,0l328-189.4a4.84,4.84,0,0,1,2.42-.66,4.89,4.89,0,0,1,4.88,4.88v46a24.28,24.28,0,0,1-12.11,21L971,920a24.18,24.18,0,0,1-12.11,3.25Z" transform="translate(-499 -3)"/><path class="cls-2" d="M958.85,5a30.88,30.88,0,0,1,15.48,4.15l312.5,180.46a31,31,0,0,1,15.47,26.81V258a3.88,3.88,0,0,1-3.88,3.88,3.82,3.82,0,0,1-1.92-.53L972.4,74.15a27.1,27.1,0,0,0-27.1,0l-259,149.68a27.07,27.07,0,0,0-13.53,23.45v436A19.32,19.32,0,0,0,682.4,700L949.17,854.1a19.37,19.37,0,0,0,19.35,0l328-189.4a3.82,3.82,0,0,1,1.92-.53,3.88,3.88,0,0,1,3.88,3.88v46a23.19,23.19,0,0,1-11.61,20.1L970.46,919.1a23.23,23.23,0,0,1-23.22,0L627.09,734.16a23.21,23.21,0,0,1-11.61-20.1V216.42A31,31,0,0,1,631,189.61L943.37,9.15A30.88,30.88,0,0,1,958.85,5m0-2a33,33,0,0,0-16.48,4.42L630,187.88a33,33,0,0,0-16.47,28.54V714.06a25.27,25.27,0,0,0,12.61,21.83L946.24,920.83a25.21,25.21,0,0,0,25.22,0l320.23-184.94a25.27,25.27,0,0,0,12.61-21.83v-46a5.89,5.89,0,0,0-5.88-5.88,5.83,5.83,0,0,0-2.92.8l-328,189.4a17.38,17.38,0,0,1-17.35,0L683.4,698.3a17.4,17.4,0,0,1-8.67-15v-436a25.16,25.16,0,0,1,12.53-21.72l259-149.68a25.12,25.12,0,0,1,25.1,0L1295.5,263a5.83,5.83,0,0,0,2.92.8,5.89,5.89,0,0,0,5.88-5.88V216.42a33,33,0,0,0-16.47-28.54L975.33,7.42A33,33,0,0,0,958.85,3Z" transform="translate(-499 -3)"/><path class="cls-11" d="M958.85,1054.24a31.92,31.92,0,0,1-16-4.29L516,803.38a32.05,32.05,0,0,1-16-27.67V282.54a32.06,32.06,0,0,1,16-27.68l36-20.73a4.86,4.86,0,0,1,7.3,4.22V744.93a26.15,26.15,0,0,0,13,22.58L945.8,983.23a26.12,26.12,0,0,0,26.09,0L1410.39,730a4.86,4.86,0,0,1,7.31,4.21v41.55a32.05,32.05,0,0,1-16,27.67L974.83,1050A31.92,31.92,0,0,1,958.85,1054.24Z" transform="translate(-499 -3)"/><path class="cls-2" d="M554.37,234.47a3.87,3.87,0,0,1,3.87,3.88V744.93a27.08,27.08,0,0,0,13.54,23.45L945.3,984.09a27.09,27.09,0,0,0,27.09,0l438.5-253.28a3.87,3.87,0,0,1,5.81,3.35v41.55a31,31,0,0,1-15.47,26.8l-426.9,246.58a30.95,30.95,0,0,1-31,0L516.47,802.51A31,31,0,0,1,501,775.71V282.54a30.94,30.94,0,0,1,15.49-26.81l36-20.73a3.82,3.82,0,0,1,1.93-.53m0-2a6,6,0,0,0-2.93.79l-36,20.74A33,33,0,0,0,499,282.54V775.71a33,33,0,0,0,16.47,28.53l426.9,246.58a32.93,32.93,0,0,0,33,0l426.9-246.58a33,33,0,0,0,16.47-28.53V734.16a5.87,5.87,0,0,0-8.81-5.08L971.39,982.36a25.1,25.1,0,0,1-25.09,0L572.78,766.65a25.17,25.17,0,0,1-12.54-21.72V238.35a5.88,5.88,0,0,0-5.87-5.88Z" transform="translate(-499 -3)"/><path class="cls-12" d="M1363.42,692.61a4.89,4.89,0,0,1-4.88-4.88V644a26.15,26.15,0,0,0-13-22.58l-32.09-18.56a22.17,22.17,0,0,0-22.24,0l-39.81,23a4.85,4.85,0,0,1-5.82-.71,4.8,4.8,0,0,1-1.49-3.5V375a18.39,18.39,0,0,0-9.17-15.88L968,205a18.36,18.36,0,0,0-18.36,0L736.27,328.29a4.85,4.85,0,0,1-2.43.66,5,5,0,0,1-3.39-1.37,4.84,4.84,0,0,1-1.48-3.51v-46a24.26,24.26,0,0,1,12.1-21L946.74,138.28a24.19,24.19,0,0,1,24.22,0l320.23,184.93a24.28,24.28,0,0,1,12.11,21V515.73A22.29,22.29,0,0,0,1314.39,535l39.85,23a2.86,2.86,0,0,0,4.3-2.49V238.35a4.86,4.86,0,0,1,7.31-4.21l35.88,20.72a32,32,0,0,1,16,27.67v361a32,32,0,0,1-15.94,27.65L1365.85,692A4.9,4.9,0,0,1,1363.42,692.61Z" transform="translate(-499 -3)"/><path class="cls-2" d="M958.85,136a23.24,23.24,0,0,1,11.61,3.11l320.23,184.94a23.19,23.19,0,0,1,11.61,20.1V515.73a23.22,23.22,0,0,0,11.59,20.09l39.85,23a3.82,3.82,0,0,0,1.93.53,3.87,3.87,0,0,0,3.87-3.88V238.35a3.87,3.87,0,0,1,5.81-3.35l35.88,20.73a31,31,0,0,1,15.47,26.8v361a31,31,0,0,1-15.44,26.79l-35.91,20.79a3.86,3.86,0,0,1-5.81-3.35V644A27.09,27.09,0,0,0,1346,620.51L1313.92,602a23.2,23.2,0,0,0-23.24,0l-39.82,23a3.81,3.81,0,0,1-1.93.52,3.87,3.87,0,0,1-3.87-3.87V375a19.36,19.36,0,0,0-9.67-16.75L968.53,204.14a19.38,19.38,0,0,0-19.36,0L735.77,327.42a3.82,3.82,0,0,1-1.93.53,3.87,3.87,0,0,1-3.87-3.88v-46a23.21,23.21,0,0,1,11.6-20.1L947.24,139.14A23.24,23.24,0,0,1,958.85,136m0-2a25.27,25.27,0,0,0-12.61,3.38L740.57,256.23A25.29,25.29,0,0,0,728,278.06v46a5.88,5.88,0,0,0,5.87,5.88,6,6,0,0,0,2.93-.79l213.4-123.29a17.4,17.4,0,0,1,17.36,0L1234.39,360a17.4,17.4,0,0,1,8.67,15V621.63a5.87,5.87,0,0,0,8.81,5.08l39.81-23a21.21,21.21,0,0,1,21.24,0L1345,622.24A25.16,25.16,0,0,1,1357.54,644v43.77a5.86,5.86,0,0,0,8.81,5.08L1402.26,672a33.05,33.05,0,0,0,16.44-28.52v-361A33,33,0,0,0,1402.23,254l-35.88-20.73a5.87,5.87,0,0,0-8.81,5.08V555.51a1.88,1.88,0,0,1-1.87,1.88,1.81,1.81,0,0,1-.93-.26l-39.85-23a21.27,21.27,0,0,1-10.59-18.36V344.18a25.29,25.29,0,0,0-12.61-21.84L971.46,137.41A25.27,25.27,0,0,0,958.85,134Z" transform="translate(-499 -3)"/></svg>